<mxfile host="app.diagrams.net" modified="2024-01-07T05:20:28.682Z" agent="Mozilla/5.0 (Macintosh; Intel Mac OS X 10_15_7) AppleWebKit/537.36 (KHTML, like Gecko) Chrome/120.0.0.0 Safari/537.36" etag="MXnCCeWDc8WqUNmIjAQs" version="22.1.17" type="device">
  <diagram name="Page-1" id="nysdpFNOO4vOGA2DMnq3">
    <mxGraphModel dx="2120" dy="1347" grid="0" gridSize="10" guides="1" tooltips="1" connect="1" arrows="1" fold="1" page="1" pageScale="1" pageWidth="850" pageHeight="1100" background="#000000" math="0" shadow="0">
      <root>
        <mxCell id="0" />
        <mxCell id="1" parent="0" />
        <mxCell id="1wLEJl1Eoq0Ph8v_FXs2-68" style="edgeStyle=orthogonalEdgeStyle;rounded=0;orthogonalLoop=1;jettySize=auto;html=1;entryX=0;entryY=0.5;entryDx=0;entryDy=0;strokeColor=#FFFFFF;startArrow=ERzeroToMany;startFill=0;endArrow=ERone;endFill=0;" edge="1" parent="1">
          <mxGeometry relative="1" as="geometry">
            <mxPoint x="520" y="280.67" as="sourcePoint" />
            <mxPoint x="590" y="280.67" as="targetPoint" />
          </mxGeometry>
        </mxCell>
        <mxCell id="1wLEJl1Eoq0Ph8v_FXs2-73" style="edgeStyle=orthogonalEdgeStyle;rounded=0;orthogonalLoop=1;jettySize=auto;html=1;entryX=0.5;entryY=0;entryDx=0;entryDy=0;strokeColor=#FFFFFF;endArrow=ERoneToMany;endFill=0;startArrow=ERone;startFill=0;" edge="1" parent="1" source="1wLEJl1Eoq0Ph8v_FXs2-1" target="1wLEJl1Eoq0Ph8v_FXs2-47">
          <mxGeometry relative="1" as="geometry" />
        </mxCell>
        <mxCell id="1wLEJl1Eoq0Ph8v_FXs2-1" value="" style="rounded=0;whiteSpace=wrap;html=1;strokeWidth=2;fillColor=none;fontColor=#ffffff;strokeColor=#FFFFFF;" vertex="1" parent="1">
          <mxGeometry x="370" y="212" width="150" height="276" as="geometry" />
        </mxCell>
        <mxCell id="1wLEJl1Eoq0Ph8v_FXs2-6" value="" style="endArrow=none;html=1;rounded=0;strokeColor=#FFFFFF;entryX=1;entryY=0.185;entryDx=0;entryDy=0;entryPerimeter=0;strokeWidth=2;" edge="1" parent="1" target="1wLEJl1Eoq0Ph8v_FXs2-1">
          <mxGeometry width="50" height="50" relative="1" as="geometry">
            <mxPoint x="370" y="262" as="sourcePoint" />
            <mxPoint x="450" y="262" as="targetPoint" />
          </mxGeometry>
        </mxCell>
        <mxCell id="1wLEJl1Eoq0Ph8v_FXs2-7" value="tbl_peminjaman" style="text;html=1;strokeColor=none;fillColor=none;align=center;verticalAlign=middle;whiteSpace=wrap;rounded=0;fontColor=#FFFFFF;" vertex="1" parent="1">
          <mxGeometry x="390" y="222" width="110" height="30" as="geometry" />
        </mxCell>
        <mxCell id="1wLEJl1Eoq0Ph8v_FXs2-8" value="id_peminjaman" style="text;html=1;strokeColor=none;fillColor=none;align=center;verticalAlign=middle;whiteSpace=wrap;rounded=0;fontColor=#FFFFFF;fontStyle=4" vertex="1" parent="1">
          <mxGeometry x="400" y="266" width="110" height="30" as="geometry" />
        </mxCell>
        <mxCell id="1wLEJl1Eoq0Ph8v_FXs2-9" value="tanggal_pinjam" style="text;html=1;strokeColor=none;fillColor=none;align=center;verticalAlign=middle;whiteSpace=wrap;rounded=0;fontColor=#FFFFFF;" vertex="1" parent="1">
          <mxGeometry x="400" y="369" width="110" height="30" as="geometry" />
        </mxCell>
        <mxCell id="1wLEJl1Eoq0Ph8v_FXs2-10" value="tanggal_kembali" style="text;html=1;strokeColor=none;fillColor=none;align=center;verticalAlign=middle;whiteSpace=wrap;rounded=0;fontColor=#FFFFFF;" vertex="1" parent="1">
          <mxGeometry x="400" y="395" width="110" height="30" as="geometry" />
        </mxCell>
        <mxCell id="1wLEJl1Eoq0Ph8v_FXs2-11" value="created_at" style="text;html=1;strokeColor=none;fillColor=none;align=center;verticalAlign=middle;whiteSpace=wrap;rounded=0;fontColor=#FFFFFF;" vertex="1" parent="1">
          <mxGeometry x="400" y="417" width="110" height="30" as="geometry" />
        </mxCell>
        <mxCell id="1wLEJl1Eoq0Ph8v_FXs2-12" value="updated_at" style="text;html=1;strokeColor=none;fillColor=none;align=center;verticalAlign=middle;whiteSpace=wrap;rounded=0;fontColor=#FFFFFF;" vertex="1" parent="1">
          <mxGeometry x="400" y="442" width="110" height="30" as="geometry" />
        </mxCell>
        <mxCell id="1wLEJl1Eoq0Ph8v_FXs2-13" value="" style="endArrow=none;html=1;rounded=0;strokeColor=#FFFFFF;entryX=0.997;entryY=0.216;entryDx=0;entryDy=0;entryPerimeter=0;strokeWidth=2;" edge="1" parent="1">
          <mxGeometry width="50" height="50" relative="1" as="geometry">
            <mxPoint x="370" y="302" as="sourcePoint" />
            <mxPoint x="520" y="302" as="targetPoint" />
          </mxGeometry>
        </mxCell>
        <mxCell id="1wLEJl1Eoq0Ph8v_FXs2-22" value="PK" style="text;html=1;strokeColor=none;fillColor=none;align=center;verticalAlign=middle;whiteSpace=wrap;rounded=0;fontColor=#FFFFFF;" vertex="1" parent="1">
          <mxGeometry x="330" y="266" width="110" height="30" as="geometry" />
        </mxCell>
        <mxCell id="1wLEJl1Eoq0Ph8v_FXs2-67" style="rounded=0;orthogonalLoop=1;jettySize=auto;html=1;entryX=0;entryY=0.5;entryDx=0;entryDy=0;strokeColor=#FFFFFF;startArrow=ERone;startFill=0;endArrow=ERzeroToMany;endFill=0;" edge="1" parent="1">
          <mxGeometry relative="1" as="geometry">
            <mxPoint x="300" y="280.74" as="sourcePoint" />
            <mxPoint x="370" y="280.74" as="targetPoint" />
          </mxGeometry>
        </mxCell>
        <mxCell id="1wLEJl1Eoq0Ph8v_FXs2-23" value="" style="rounded=0;whiteSpace=wrap;html=1;strokeWidth=2;fillColor=none;fontColor=#ffffff;strokeColor=#FFFFFF;" vertex="1" parent="1">
          <mxGeometry x="150" y="212" width="150" height="230" as="geometry" />
        </mxCell>
        <mxCell id="1wLEJl1Eoq0Ph8v_FXs2-24" value="" style="endArrow=none;html=1;rounded=0;strokeColor=#FFFFFF;entryX=0.997;entryY=0.216;entryDx=0;entryDy=0;entryPerimeter=0;strokeWidth=2;" edge="1" parent="1" target="1wLEJl1Eoq0Ph8v_FXs2-23">
          <mxGeometry width="50" height="50" relative="1" as="geometry">
            <mxPoint x="150" y="262" as="sourcePoint" />
            <mxPoint x="230" y="262" as="targetPoint" />
          </mxGeometry>
        </mxCell>
        <mxCell id="1wLEJl1Eoq0Ph8v_FXs2-25" value="tbl_admin" style="text;html=1;strokeColor=none;fillColor=none;align=center;verticalAlign=middle;whiteSpace=wrap;rounded=0;fontColor=#FFFFFF;" vertex="1" parent="1">
          <mxGeometry x="170" y="222" width="110" height="30" as="geometry" />
        </mxCell>
        <mxCell id="1wLEJl1Eoq0Ph8v_FXs2-26" value="id_admin" style="text;html=1;strokeColor=none;fillColor=none;align=center;verticalAlign=middle;whiteSpace=wrap;rounded=0;fontColor=#FFFFFF;fontStyle=4" vertex="1" parent="1">
          <mxGeometry x="180" y="266" width="110" height="30" as="geometry" />
        </mxCell>
        <mxCell id="1wLEJl1Eoq0Ph8v_FXs2-27" value="nama_admin" style="text;html=1;strokeColor=none;fillColor=none;align=center;verticalAlign=middle;whiteSpace=wrap;rounded=0;fontColor=#FFFFFF;" vertex="1" parent="1">
          <mxGeometry x="180" y="302" width="110" height="30" as="geometry" />
        </mxCell>
        <mxCell id="1wLEJl1Eoq0Ph8v_FXs2-28" value="email_admin" style="text;html=1;strokeColor=none;fillColor=none;align=center;verticalAlign=middle;whiteSpace=wrap;rounded=0;fontColor=#FFFFFF;" vertex="1" parent="1">
          <mxGeometry x="180" y="327" width="110" height="30" as="geometry" />
        </mxCell>
        <mxCell id="1wLEJl1Eoq0Ph8v_FXs2-29" value="password" style="text;html=1;strokeColor=none;fillColor=none;align=center;verticalAlign=middle;whiteSpace=wrap;rounded=0;fontColor=#FFFFFF;" vertex="1" parent="1">
          <mxGeometry x="180" y="352" width="110" height="30" as="geometry" />
        </mxCell>
        <mxCell id="1wLEJl1Eoq0Ph8v_FXs2-30" value="created_at" style="text;html=1;strokeColor=none;fillColor=none;align=center;verticalAlign=middle;whiteSpace=wrap;rounded=0;fontColor=#FFFFFF;" vertex="1" parent="1">
          <mxGeometry x="180" y="376" width="110" height="30" as="geometry" />
        </mxCell>
        <mxCell id="1wLEJl1Eoq0Ph8v_FXs2-31" value="" style="endArrow=none;html=1;rounded=0;strokeColor=#FFFFFF;entryX=0.997;entryY=0.216;entryDx=0;entryDy=0;entryPerimeter=0;strokeWidth=2;" edge="1" parent="1">
          <mxGeometry width="50" height="50" relative="1" as="geometry">
            <mxPoint x="150" y="302" as="sourcePoint" />
            <mxPoint x="300" y="302" as="targetPoint" />
          </mxGeometry>
        </mxCell>
        <mxCell id="1wLEJl1Eoq0Ph8v_FXs2-32" value="" style="endArrow=none;html=1;rounded=0;strokeWidth=2;strokeColor=#FFFFFF;" edge="1" parent="1">
          <mxGeometry width="50" height="50" relative="1" as="geometry">
            <mxPoint x="180" y="442" as="sourcePoint" />
            <mxPoint x="180" y="262" as="targetPoint" />
          </mxGeometry>
        </mxCell>
        <mxCell id="1wLEJl1Eoq0Ph8v_FXs2-33" value="" style="rounded=0;whiteSpace=wrap;html=1;strokeWidth=2;fillColor=none;fontColor=#ffffff;strokeColor=#FFFFFF;" vertex="1" parent="1">
          <mxGeometry x="590" y="212" width="150" height="230" as="geometry" />
        </mxCell>
        <mxCell id="1wLEJl1Eoq0Ph8v_FXs2-34" value="" style="endArrow=none;html=1;rounded=0;strokeColor=#FFFFFF;entryX=0.997;entryY=0.216;entryDx=0;entryDy=0;entryPerimeter=0;strokeWidth=2;" edge="1" parent="1" target="1wLEJl1Eoq0Ph8v_FXs2-33">
          <mxGeometry width="50" height="50" relative="1" as="geometry">
            <mxPoint x="590" y="262" as="sourcePoint" />
            <mxPoint x="670" y="262" as="targetPoint" />
          </mxGeometry>
        </mxCell>
        <mxCell id="1wLEJl1Eoq0Ph8v_FXs2-35" value="tbl_anggota" style="text;html=1;strokeColor=none;fillColor=none;align=center;verticalAlign=middle;whiteSpace=wrap;rounded=0;fontColor=#FFFFFF;" vertex="1" parent="1">
          <mxGeometry x="610" y="222" width="110" height="30" as="geometry" />
        </mxCell>
        <mxCell id="1wLEJl1Eoq0Ph8v_FXs2-36" value="id_anggota" style="text;html=1;strokeColor=none;fillColor=none;align=center;verticalAlign=middle;whiteSpace=wrap;rounded=0;fontColor=#FFFFFF;fontStyle=4" vertex="1" parent="1">
          <mxGeometry x="620" y="266" width="110" height="30" as="geometry" />
        </mxCell>
        <mxCell id="1wLEJl1Eoq0Ph8v_FXs2-37" value="nama_anggota" style="text;html=1;strokeColor=none;fillColor=none;align=center;verticalAlign=middle;whiteSpace=wrap;rounded=0;fontColor=#FFFFFF;" vertex="1" parent="1">
          <mxGeometry x="620" y="302" width="110" height="30" as="geometry" />
        </mxCell>
        <mxCell id="1wLEJl1Eoq0Ph8v_FXs2-38" value="email_anggota" style="text;html=1;strokeColor=none;fillColor=none;align=center;verticalAlign=middle;whiteSpace=wrap;rounded=0;fontColor=#FFFFFF;" vertex="1" parent="1">
          <mxGeometry x="620" y="327" width="110" height="30" as="geometry" />
        </mxCell>
        <mxCell id="1wLEJl1Eoq0Ph8v_FXs2-39" value="nim" style="text;html=1;strokeColor=none;fillColor=none;align=center;verticalAlign=middle;whiteSpace=wrap;rounded=0;fontColor=#FFFFFF;" vertex="1" parent="1">
          <mxGeometry x="620" y="352" width="110" height="30" as="geometry" />
        </mxCell>
        <mxCell id="1wLEJl1Eoq0Ph8v_FXs2-40" value="updated_at" style="text;html=1;strokeColor=none;fillColor=none;align=center;verticalAlign=middle;whiteSpace=wrap;rounded=0;fontColor=#FFFFFF;" vertex="1" parent="1">
          <mxGeometry x="620" y="402" width="110" height="30" as="geometry" />
        </mxCell>
        <mxCell id="1wLEJl1Eoq0Ph8v_FXs2-41" value="" style="endArrow=none;html=1;rounded=0;strokeColor=#FFFFFF;entryX=0.997;entryY=0.216;entryDx=0;entryDy=0;entryPerimeter=0;strokeWidth=2;" edge="1" parent="1">
          <mxGeometry width="50" height="50" relative="1" as="geometry">
            <mxPoint x="590" y="302" as="sourcePoint" />
            <mxPoint x="740" y="302" as="targetPoint" />
          </mxGeometry>
        </mxCell>
        <mxCell id="1wLEJl1Eoq0Ph8v_FXs2-42" value="" style="endArrow=none;html=1;rounded=0;strokeWidth=2;strokeColor=#FFFFFF;" edge="1" parent="1">
          <mxGeometry width="50" height="50" relative="1" as="geometry">
            <mxPoint x="620" y="442" as="sourcePoint" />
            <mxPoint x="620" y="262" as="targetPoint" />
          </mxGeometry>
        </mxCell>
        <mxCell id="1wLEJl1Eoq0Ph8v_FXs2-43" value="updated_at" style="text;html=1;strokeColor=none;fillColor=none;align=center;verticalAlign=middle;whiteSpace=wrap;rounded=0;fontColor=#FFFFFF;" vertex="1" parent="1">
          <mxGeometry x="180" y="402" width="110" height="30" as="geometry" />
        </mxCell>
        <mxCell id="1wLEJl1Eoq0Ph8v_FXs2-44" value="PK" style="text;html=1;strokeColor=none;fillColor=none;align=center;verticalAlign=middle;whiteSpace=wrap;rounded=0;fontColor=#FFFFFF;" vertex="1" parent="1">
          <mxGeometry x="110" y="266" width="110" height="30" as="geometry" />
        </mxCell>
        <mxCell id="1wLEJl1Eoq0Ph8v_FXs2-45" value="created_at" style="text;html=1;strokeColor=none;fillColor=none;align=center;verticalAlign=middle;whiteSpace=wrap;rounded=0;fontColor=#FFFFFF;" vertex="1" parent="1">
          <mxGeometry x="620" y="376" width="110" height="30" as="geometry" />
        </mxCell>
        <mxCell id="1wLEJl1Eoq0Ph8v_FXs2-46" value="PK" style="text;html=1;strokeColor=none;fillColor=none;align=center;verticalAlign=middle;whiteSpace=wrap;rounded=0;fontColor=#FFFFFF;" vertex="1" parent="1">
          <mxGeometry x="550" y="266" width="110" height="30" as="geometry" />
        </mxCell>
        <mxCell id="1wLEJl1Eoq0Ph8v_FXs2-47" value="" style="rounded=0;whiteSpace=wrap;html=1;strokeWidth=2;fillColor=none;fontColor=#ffffff;strokeColor=#FFFFFF;" vertex="1" parent="1">
          <mxGeometry x="370" y="588" width="150" height="300" as="geometry" />
        </mxCell>
        <mxCell id="1wLEJl1Eoq0Ph8v_FXs2-48" value="" style="endArrow=none;html=1;rounded=0;strokeColor=#FFFFFF;entryX=0.995;entryY=0.166;entryDx=0;entryDy=0;entryPerimeter=0;strokeWidth=2;" edge="1" parent="1" target="1wLEJl1Eoq0Ph8v_FXs2-47">
          <mxGeometry width="50" height="50" relative="1" as="geometry">
            <mxPoint x="370" y="638" as="sourcePoint" />
            <mxPoint x="450" y="638" as="targetPoint" />
          </mxGeometry>
        </mxCell>
        <mxCell id="1wLEJl1Eoq0Ph8v_FXs2-49" value="tbl_buku" style="text;html=1;strokeColor=none;fillColor=none;align=center;verticalAlign=middle;whiteSpace=wrap;rounded=0;fontColor=#FFFFFF;" vertex="1" parent="1">
          <mxGeometry x="390" y="598" width="110" height="30" as="geometry" />
        </mxCell>
        <mxCell id="1wLEJl1Eoq0Ph8v_FXs2-50" value="id_buku" style="text;html=1;strokeColor=none;fillColor=none;align=center;verticalAlign=middle;whiteSpace=wrap;rounded=0;fontColor=#FFFFFF;fontStyle=4" vertex="1" parent="1">
          <mxGeometry x="400" y="642" width="110" height="30" as="geometry" />
        </mxCell>
        <mxCell id="1wLEJl1Eoq0Ph8v_FXs2-51" value="judul" style="text;html=1;strokeColor=none;fillColor=none;align=center;verticalAlign=middle;whiteSpace=wrap;rounded=0;fontColor=#FFFFFF;" vertex="1" parent="1">
          <mxGeometry x="400" y="678" width="110" height="30" as="geometry" />
        </mxCell>
        <mxCell id="1wLEJl1Eoq0Ph8v_FXs2-52" value="pengarang" style="text;html=1;strokeColor=none;fillColor=none;align=center;verticalAlign=middle;whiteSpace=wrap;rounded=0;fontColor=#FFFFFF;" vertex="1" parent="1">
          <mxGeometry x="400" y="703" width="110" height="30" as="geometry" />
        </mxCell>
        <mxCell id="1wLEJl1Eoq0Ph8v_FXs2-53" value="tahun" style="text;html=1;strokeColor=none;fillColor=none;align=center;verticalAlign=middle;whiteSpace=wrap;rounded=0;fontColor=#FFFFFF;" vertex="1" parent="1">
          <mxGeometry x="400" y="728" width="110" height="30" as="geometry" />
        </mxCell>
        <mxCell id="1wLEJl1Eoq0Ph8v_FXs2-54" value="updated_at" style="text;html=1;strokeColor=none;fillColor=none;align=center;verticalAlign=middle;whiteSpace=wrap;rounded=0;fontColor=#FFFFFF;" vertex="1" parent="1">
          <mxGeometry x="400" y="858" width="110" height="30" as="geometry" />
        </mxCell>
        <mxCell id="1wLEJl1Eoq0Ph8v_FXs2-55" value="" style="endArrow=none;html=1;rounded=0;strokeColor=#FFFFFF;entryX=0.997;entryY=0.216;entryDx=0;entryDy=0;entryPerimeter=0;strokeWidth=2;" edge="1" parent="1">
          <mxGeometry width="50" height="50" relative="1" as="geometry">
            <mxPoint x="370" y="678" as="sourcePoint" />
            <mxPoint x="520" y="678" as="targetPoint" />
          </mxGeometry>
        </mxCell>
        <mxCell id="1wLEJl1Eoq0Ph8v_FXs2-57" value="created_at" style="text;html=1;strokeColor=none;fillColor=none;align=center;verticalAlign=middle;whiteSpace=wrap;rounded=0;fontColor=#FFFFFF;" vertex="1" parent="1">
          <mxGeometry x="400" y="828" width="110" height="30" as="geometry" />
        </mxCell>
        <mxCell id="1wLEJl1Eoq0Ph8v_FXs2-58" value="PK" style="text;html=1;strokeColor=none;fillColor=none;align=center;verticalAlign=middle;whiteSpace=wrap;rounded=0;fontColor=#FFFFFF;" vertex="1" parent="1">
          <mxGeometry x="330" y="642" width="110" height="30" as="geometry" />
        </mxCell>
        <mxCell id="1wLEJl1Eoq0Ph8v_FXs2-62" value="" style="endArrow=none;html=1;rounded=0;entryX=0.631;entryY=-0.06;entryDx=0;entryDy=0;entryPerimeter=0;exitX=0.185;exitY=1.001;exitDx=0;exitDy=0;exitPerimeter=0;strokeWidth=2;strokeColor=#FFFFFF;" edge="1" parent="1" source="1wLEJl1Eoq0Ph8v_FXs2-47">
          <mxGeometry width="50" height="50" relative="1" as="geometry">
            <mxPoint x="399" y="828" as="sourcePoint" />
            <mxPoint x="399.40999999999985" y="640.2" as="targetPoint" />
          </mxGeometry>
        </mxCell>
        <mxCell id="1wLEJl1Eoq0Ph8v_FXs2-63" value="cover" style="text;html=1;strokeColor=none;fillColor=none;align=center;verticalAlign=middle;whiteSpace=wrap;rounded=0;fontColor=#FFFFFF;" vertex="1" parent="1">
          <mxGeometry x="400" y="752" width="110" height="30" as="geometry" />
        </mxCell>
        <mxCell id="1wLEJl1Eoq0Ph8v_FXs2-64" value="stok" style="text;html=1;strokeColor=none;fillColor=none;align=center;verticalAlign=middle;whiteSpace=wrap;rounded=0;fontColor=#FFFFFF;" vertex="1" parent="1">
          <mxGeometry x="400" y="778" width="110" height="30" as="geometry" />
        </mxCell>
        <mxCell id="1wLEJl1Eoq0Ph8v_FXs2-65" value="status_peminjaman" style="text;html=1;strokeColor=none;fillColor=none;align=center;verticalAlign=middle;whiteSpace=wrap;rounded=0;fontColor=#FFFFFF;" vertex="1" parent="1">
          <mxGeometry x="404" y="800" width="110" height="30" as="geometry" />
        </mxCell>
        <mxCell id="1wLEJl1Eoq0Ph8v_FXs2-76" value="" style="rounded=0;whiteSpace=wrap;html=1;strokeWidth=2;fillColor=none;fontColor=#ffffff;strokeColor=#FFFFFF;" vertex="1" parent="1">
          <mxGeometry x="208" y="1169" width="150" height="230" as="geometry" />
        </mxCell>
        <mxCell id="1wLEJl1Eoq0Ph8v_FXs2-77" value="" style="endArrow=none;html=1;rounded=0;strokeColor=#FFFFFF;entryX=0.997;entryY=0.216;entryDx=0;entryDy=0;entryPerimeter=0;strokeWidth=2;" edge="1" parent="1" target="1wLEJl1Eoq0Ph8v_FXs2-76">
          <mxGeometry width="50" height="50" relative="1" as="geometry">
            <mxPoint x="208" y="1219" as="sourcePoint" />
            <mxPoint x="288" y="1219" as="targetPoint" />
          </mxGeometry>
        </mxCell>
        <mxCell id="1wLEJl1Eoq0Ph8v_FXs2-78" value="tbl_anggota" style="text;html=1;strokeColor=none;fillColor=none;align=center;verticalAlign=middle;whiteSpace=wrap;rounded=0;fontColor=#FFFFFF;" vertex="1" parent="1">
          <mxGeometry x="228" y="1179" width="110" height="30" as="geometry" />
        </mxCell>
        <mxCell id="1wLEJl1Eoq0Ph8v_FXs2-79" value="id_anggota: int" style="text;html=1;strokeColor=none;fillColor=none;align=left;verticalAlign=middle;whiteSpace=wrap;rounded=0;fontColor=#FFFFFF;fontStyle=0" vertex="1" parent="1">
          <mxGeometry x="218" y="1225" width="110" height="30" as="geometry" />
        </mxCell>
        <mxCell id="1wLEJl1Eoq0Ph8v_FXs2-80" value="nama_anggota: varchar" style="text;html=1;strokeColor=none;fillColor=none;align=left;verticalAlign=middle;whiteSpace=wrap;rounded=0;fontColor=#FFFFFF;" vertex="1" parent="1">
          <mxGeometry x="218" y="1255" width="158" height="30" as="geometry" />
        </mxCell>
        <mxCell id="1wLEJl1Eoq0Ph8v_FXs2-81" value="email_anggota: varchar" style="text;html=1;strokeColor=none;fillColor=none;align=left;verticalAlign=middle;whiteSpace=wrap;rounded=0;fontColor=#FFFFFF;" vertex="1" parent="1">
          <mxGeometry x="218" y="1282" width="128" height="30" as="geometry" />
        </mxCell>
        <mxCell id="1wLEJl1Eoq0Ph8v_FXs2-82" value="nim: int" style="text;html=1;strokeColor=none;fillColor=none;align=left;verticalAlign=middle;whiteSpace=wrap;rounded=0;fontColor=#FFFFFF;" vertex="1" parent="1">
          <mxGeometry x="218" y="1311" width="110" height="30" as="geometry" />
        </mxCell>
        <mxCell id="1wLEJl1Eoq0Ph8v_FXs2-88" value="" style="endArrow=none;html=1;rounded=0;entryX=0.63;entryY=-0.121;entryDx=0;entryDy=0;entryPerimeter=0;exitX=0.2;exitY=1.002;exitDx=0;exitDy=0;exitPerimeter=0;strokeColor=#FFFFFF;strokeWidth=2;" edge="1" parent="1" source="1wLEJl1Eoq0Ph8v_FXs2-1" target="1wLEJl1Eoq0Ph8v_FXs2-22">
          <mxGeometry width="50" height="50" relative="1" as="geometry">
            <mxPoint x="384" y="405" as="sourcePoint" />
            <mxPoint x="434" y="355" as="targetPoint" />
          </mxGeometry>
        </mxCell>
        <mxCell id="1wLEJl1Eoq0Ph8v_FXs2-89" value="id_admin" style="text;html=1;strokeColor=none;fillColor=none;align=center;verticalAlign=middle;whiteSpace=wrap;rounded=0;fontColor=#FFFFFF;" vertex="1" parent="1">
          <mxGeometry x="396" y="302" width="110" height="30" as="geometry" />
        </mxCell>
        <mxCell id="1wLEJl1Eoq0Ph8v_FXs2-90" value="id_anggota" style="text;html=1;strokeColor=none;fillColor=none;align=center;verticalAlign=middle;whiteSpace=wrap;rounded=0;fontColor=#FFFFFF;" vertex="1" parent="1">
          <mxGeometry x="396" y="322" width="110" height="30" as="geometry" />
        </mxCell>
        <mxCell id="1wLEJl1Eoq0Ph8v_FXs2-91" value="id_buku" style="text;html=1;strokeColor=none;fillColor=none;align=center;verticalAlign=middle;whiteSpace=wrap;rounded=0;fontColor=#FFFFFF;" vertex="1" parent="1">
          <mxGeometry x="396" y="344" width="110" height="30" as="geometry" />
        </mxCell>
        <mxCell id="1wLEJl1Eoq0Ph8v_FXs2-92" value="FK1" style="text;html=1;strokeColor=none;fillColor=none;align=center;verticalAlign=middle;whiteSpace=wrap;rounded=0;fontColor=#FFFFFF;" vertex="1" parent="1">
          <mxGeometry x="330" y="300" width="110" height="30" as="geometry" />
        </mxCell>
        <mxCell id="1wLEJl1Eoq0Ph8v_FXs2-93" value="FK2" style="text;html=1;strokeColor=none;fillColor=none;align=center;verticalAlign=middle;whiteSpace=wrap;rounded=0;fontColor=#FFFFFF;" vertex="1" parent="1">
          <mxGeometry x="330" y="322" width="110" height="30" as="geometry" />
        </mxCell>
        <mxCell id="1wLEJl1Eoq0Ph8v_FXs2-94" value="FK3" style="text;html=1;strokeColor=none;fillColor=none;align=center;verticalAlign=middle;whiteSpace=wrap;rounded=0;fontColor=#FFFFFF;" vertex="1" parent="1">
          <mxGeometry x="330" y="344" width="110" height="30" as="geometry" />
        </mxCell>
        <mxCell id="1wLEJl1Eoq0Ph8v_FXs2-96" value="" style="rounded=0;whiteSpace=wrap;html=1;strokeWidth=2;fillColor=none;fontColor=#ffffff;strokeColor=#FFFFFF;" vertex="1" parent="1">
          <mxGeometry x="208" y="1485" width="150" height="315" as="geometry" />
        </mxCell>
        <mxCell id="1wLEJl1Eoq0Ph8v_FXs2-98" value="tbl_peminjaman" style="text;html=1;strokeColor=none;fillColor=none;align=center;verticalAlign=middle;whiteSpace=wrap;rounded=0;fontColor=#FFFFFF;" vertex="1" parent="1">
          <mxGeometry x="228" y="1495" width="110" height="30" as="geometry" />
        </mxCell>
        <mxCell id="1wLEJl1Eoq0Ph8v_FXs2-99" value="id_peminjaman: int" style="text;html=1;strokeColor=none;fillColor=none;align=left;verticalAlign=middle;whiteSpace=wrap;rounded=0;fontColor=#FFFFFF;fontStyle=0" vertex="1" parent="1">
          <mxGeometry x="218" y="1540" width="110" height="30" as="geometry" />
        </mxCell>
        <mxCell id="1wLEJl1Eoq0Ph8v_FXs2-100" value="tanggal_pinjam: date" style="text;html=1;strokeColor=none;fillColor=none;align=left;verticalAlign=middle;whiteSpace=wrap;rounded=0;fontColor=#FFFFFF;" vertex="1" parent="1">
          <mxGeometry x="218" y="1642" width="120" height="30" as="geometry" />
        </mxCell>
        <mxCell id="1wLEJl1Eoq0Ph8v_FXs2-101" value="tanggal_kembali: date" style="text;html=1;strokeColor=none;fillColor=none;align=left;verticalAlign=middle;whiteSpace=wrap;rounded=0;fontColor=#FFFFFF;" vertex="1" parent="1">
          <mxGeometry x="218" y="1672" width="126" height="30" as="geometry" />
        </mxCell>
        <mxCell id="1wLEJl1Eoq0Ph8v_FXs2-104" value="" style="endArrow=none;html=1;rounded=0;strokeColor=#FFFFFF;entryX=0.997;entryY=0.216;entryDx=0;entryDy=0;entryPerimeter=0;strokeWidth=2;" edge="1" parent="1">
          <mxGeometry width="50" height="50" relative="1" as="geometry">
            <mxPoint x="208" y="1708" as="sourcePoint" />
            <mxPoint x="358" y="1708" as="targetPoint" />
          </mxGeometry>
        </mxCell>
        <mxCell id="1wLEJl1Eoq0Ph8v_FXs2-107" value="id_admin: int" style="text;html=1;strokeColor=none;fillColor=none;align=left;verticalAlign=middle;whiteSpace=wrap;rounded=0;fontColor=#FFFFFF;" vertex="1" parent="1">
          <mxGeometry x="218" y="1563" width="110" height="30" as="geometry" />
        </mxCell>
        <mxCell id="1wLEJl1Eoq0Ph8v_FXs2-108" value="id_anggota: int" style="text;html=1;strokeColor=none;fillColor=none;align=left;verticalAlign=middle;whiteSpace=wrap;rounded=0;fontColor=#FFFFFF;" vertex="1" parent="1">
          <mxGeometry x="218" y="1591" width="110" height="30" as="geometry" />
        </mxCell>
        <mxCell id="1wLEJl1Eoq0Ph8v_FXs2-109" value="id_buku: int" style="text;html=1;strokeColor=none;fillColor=none;align=left;verticalAlign=middle;whiteSpace=wrap;rounded=0;fontColor=#FFFFFF;" vertex="1" parent="1">
          <mxGeometry x="218" y="1617" width="110" height="30" as="geometry" />
        </mxCell>
        <mxCell id="1wLEJl1Eoq0Ph8v_FXs2-114" value="" style="endArrow=none;html=1;rounded=0;strokeColor=#FFFFFF;entryX=0.997;entryY=0.216;entryDx=0;entryDy=0;entryPerimeter=0;strokeWidth=2;" edge="1" parent="1">
          <mxGeometry width="50" height="50" relative="1" as="geometry">
            <mxPoint x="208" y="1532" as="sourcePoint" />
            <mxPoint x="358" y="1532" as="targetPoint" />
          </mxGeometry>
        </mxCell>
        <mxCell id="1wLEJl1Eoq0Ph8v_FXs2-115" value="insert_data()" style="text;html=1;strokeColor=none;fillColor=none;align=left;verticalAlign=middle;whiteSpace=wrap;rounded=0;fontColor=#FFFFFF;" vertex="1" parent="1">
          <mxGeometry x="218" y="1714" width="126" height="30" as="geometry" />
        </mxCell>
        <mxCell id="1wLEJl1Eoq0Ph8v_FXs2-116" value="update_data()" style="text;html=1;strokeColor=none;fillColor=none;align=left;verticalAlign=middle;whiteSpace=wrap;rounded=0;fontColor=#FFFFFF;" vertex="1" parent="1">
          <mxGeometry x="218" y="1738" width="126" height="30" as="geometry" />
        </mxCell>
        <mxCell id="1wLEJl1Eoq0Ph8v_FXs2-117" value="delete_data()" style="text;html=1;strokeColor=none;fillColor=none;align=left;verticalAlign=middle;whiteSpace=wrap;rounded=0;fontColor=#FFFFFF;" vertex="1" parent="1">
          <mxGeometry x="218" y="1762" width="126" height="30" as="geometry" />
        </mxCell>
        <mxCell id="1wLEJl1Eoq0Ph8v_FXs2-118" value="" style="endArrow=none;html=1;rounded=0;strokeColor=#FFFFFF;entryX=0.997;entryY=0.216;entryDx=0;entryDy=0;entryPerimeter=0;strokeWidth=2;" edge="1" parent="1">
          <mxGeometry width="50" height="50" relative="1" as="geometry">
            <mxPoint x="208" y="1344" as="sourcePoint" />
            <mxPoint x="358" y="1344" as="targetPoint" />
          </mxGeometry>
        </mxCell>
        <mxCell id="1wLEJl1Eoq0Ph8v_FXs2-119" value="insert_anggota()" style="text;html=1;strokeColor=none;fillColor=none;align=left;verticalAlign=middle;whiteSpace=wrap;rounded=0;fontColor=#FFFFFF;" vertex="1" parent="1">
          <mxGeometry x="215" y="1345" width="126" height="30" as="geometry" />
        </mxCell>
        <mxCell id="1wLEJl1Eoq0Ph8v_FXs2-160" value="" style="edgeStyle=orthogonalEdgeStyle;rounded=0;orthogonalLoop=1;jettySize=auto;html=1;strokeColor=#FFFFFF;endArrow=none;endFill=0;" edge="1" parent="1">
          <mxGeometry relative="1" as="geometry">
            <mxPoint x="278" y="1399" as="sourcePoint" />
            <mxPoint x="278" y="1485" as="targetPoint" />
            <Array as="points">
              <mxPoint x="278" y="1468" />
              <mxPoint x="278" y="1468" />
            </Array>
          </mxGeometry>
        </mxCell>
        <mxCell id="1wLEJl1Eoq0Ph8v_FXs2-120" value="delete_anggota()" style="text;html=1;strokeColor=none;fillColor=none;align=left;verticalAlign=middle;whiteSpace=wrap;rounded=0;fontColor=#FFFFFF;" vertex="1" parent="1">
          <mxGeometry x="215" y="1364" width="126" height="30" as="geometry" />
        </mxCell>
        <mxCell id="1wLEJl1Eoq0Ph8v_FXs2-123" value="" style="rounded=0;whiteSpace=wrap;html=1;strokeWidth=2;fillColor=none;fontColor=#ffffff;strokeColor=#FFFFFF;" vertex="1" parent="1">
          <mxGeometry x="208" y="1886" width="150" height="245" as="geometry" />
        </mxCell>
        <mxCell id="1wLEJl1Eoq0Ph8v_FXs2-125" value="tbl_admin" style="text;html=1;strokeColor=none;fillColor=none;align=center;verticalAlign=middle;whiteSpace=wrap;rounded=0;fontColor=#FFFFFF;" vertex="1" parent="1">
          <mxGeometry x="228" y="1896" width="110" height="30" as="geometry" />
        </mxCell>
        <mxCell id="1wLEJl1Eoq0Ph8v_FXs2-126" value="id_admin: int" style="text;html=1;strokeColor=none;fillColor=none;align=left;verticalAlign=middle;whiteSpace=wrap;rounded=0;fontColor=#FFFFFF;fontStyle=0" vertex="1" parent="1">
          <mxGeometry x="218" y="1943" width="110" height="30" as="geometry" />
        </mxCell>
        <mxCell id="1wLEJl1Eoq0Ph8v_FXs2-127" value="nama_admin: varchar" style="text;html=1;strokeColor=none;fillColor=none;align=left;verticalAlign=middle;whiteSpace=wrap;rounded=0;fontColor=#FFFFFF;" vertex="1" parent="1">
          <mxGeometry x="218" y="1972" width="120" height="30" as="geometry" />
        </mxCell>
        <mxCell id="1wLEJl1Eoq0Ph8v_FXs2-128" value="email_admin: varchar" style="text;html=1;strokeColor=none;fillColor=none;align=left;verticalAlign=middle;whiteSpace=wrap;rounded=0;fontColor=#FFFFFF;" vertex="1" parent="1">
          <mxGeometry x="218" y="1999" width="125" height="30" as="geometry" />
        </mxCell>
        <mxCell id="1wLEJl1Eoq0Ph8v_FXs2-129" value="password: varchar" style="text;html=1;strokeColor=none;fillColor=none;align=left;verticalAlign=middle;whiteSpace=wrap;rounded=0;fontColor=#FFFFFF;" vertex="1" parent="1">
          <mxGeometry x="218" y="2029" width="110" height="30" as="geometry" />
        </mxCell>
        <mxCell id="1wLEJl1Eoq0Ph8v_FXs2-135" value="" style="endArrow=none;html=1;rounded=0;strokeColor=#FFFFFF;entryX=0.997;entryY=0.216;entryDx=0;entryDy=0;entryPerimeter=0;strokeWidth=2;" edge="1" parent="1">
          <mxGeometry width="50" height="50" relative="1" as="geometry">
            <mxPoint x="208" y="2070" as="sourcePoint" />
            <mxPoint x="358" y="2070" as="targetPoint" />
          </mxGeometry>
        </mxCell>
        <mxCell id="1wLEJl1Eoq0Ph8v_FXs2-136" value="" style="endArrow=none;html=1;rounded=0;strokeColor=#FFFFFF;entryX=0.997;entryY=0.216;entryDx=0;entryDy=0;entryPerimeter=0;strokeWidth=2;" edge="1" parent="1">
          <mxGeometry width="50" height="50" relative="1" as="geometry">
            <mxPoint x="208" y="1934" as="sourcePoint" />
            <mxPoint x="358" y="1934" as="targetPoint" />
          </mxGeometry>
        </mxCell>
        <mxCell id="1wLEJl1Eoq0Ph8v_FXs2-137" value="insert_admin()" style="text;html=1;strokeColor=none;fillColor=none;align=left;verticalAlign=middle;whiteSpace=wrap;rounded=0;fontColor=#FFFFFF;" vertex="1" parent="1">
          <mxGeometry x="215" y="2075" width="126" height="30" as="geometry" />
        </mxCell>
        <mxCell id="1wLEJl1Eoq0Ph8v_FXs2-138" value="delete_admin()" style="text;html=1;strokeColor=none;fillColor=none;align=left;verticalAlign=middle;whiteSpace=wrap;rounded=0;fontColor=#FFFFFF;" vertex="1" parent="1">
          <mxGeometry x="215" y="2094" width="126" height="30" as="geometry" />
        </mxCell>
        <mxCell id="1wLEJl1Eoq0Ph8v_FXs2-139" value="" style="rounded=0;whiteSpace=wrap;html=1;strokeWidth=2;fillColor=none;fontColor=#ffffff;strokeColor=#FFFFFF;" vertex="1" parent="1">
          <mxGeometry x="492" y="1481.85" width="150" height="333.15" as="geometry" />
        </mxCell>
        <mxCell id="1wLEJl1Eoq0Ph8v_FXs2-141" value="tbl_buku" style="text;html=1;strokeColor=none;fillColor=none;align=center;verticalAlign=middle;whiteSpace=wrap;rounded=0;fontColor=#FFFFFF;" vertex="1" parent="1">
          <mxGeometry x="512" y="1491.85" width="110" height="30" as="geometry" />
        </mxCell>
        <mxCell id="1wLEJl1Eoq0Ph8v_FXs2-142" value="id_buku: int" style="text;html=1;strokeColor=none;fillColor=none;align=left;verticalAlign=middle;whiteSpace=wrap;rounded=0;fontColor=#FFFFFF;fontStyle=0" vertex="1" parent="1">
          <mxGeometry x="506" y="1540" width="110" height="30" as="geometry" />
        </mxCell>
        <mxCell id="1wLEJl1Eoq0Ph8v_FXs2-143" value="judul: varchar" style="text;html=1;strokeColor=none;fillColor=none;align=left;verticalAlign=middle;whiteSpace=wrap;rounded=0;fontColor=#FFFFFF;" vertex="1" parent="1">
          <mxGeometry x="506" y="1569" width="110" height="30" as="geometry" />
        </mxCell>
        <mxCell id="1wLEJl1Eoq0Ph8v_FXs2-144" value="pengarang: varchar" style="text;html=1;strokeColor=none;fillColor=none;align=left;verticalAlign=middle;whiteSpace=wrap;rounded=0;fontColor=#FFFFFF;" vertex="1" parent="1">
          <mxGeometry x="506" y="1596" width="110" height="30" as="geometry" />
        </mxCell>
        <mxCell id="1wLEJl1Eoq0Ph8v_FXs2-145" value="tahun: year" style="text;html=1;strokeColor=none;fillColor=none;align=left;verticalAlign=middle;whiteSpace=wrap;rounded=0;fontColor=#FFFFFF;" vertex="1" parent="1">
          <mxGeometry x="506" y="1622" width="110" height="30" as="geometry" />
        </mxCell>
        <mxCell id="1wLEJl1Eoq0Ph8v_FXs2-151" value="cover: text" style="text;html=1;strokeColor=none;fillColor=none;align=left;verticalAlign=middle;whiteSpace=wrap;rounded=0;fontColor=#FFFFFF;" vertex="1" parent="1">
          <mxGeometry x="506" y="1650" width="110" height="30" as="geometry" />
        </mxCell>
        <mxCell id="1wLEJl1Eoq0Ph8v_FXs2-152" value="stok: int" style="text;html=1;strokeColor=none;fillColor=none;align=left;verticalAlign=middle;whiteSpace=wrap;rounded=0;fontColor=#FFFFFF;" vertex="1" parent="1">
          <mxGeometry x="506" y="1676" width="110" height="30" as="geometry" />
        </mxCell>
        <mxCell id="1wLEJl1Eoq0Ph8v_FXs2-153" value="status_peminjaman: tinyint" style="text;html=1;strokeColor=none;fillColor=none;align=left;verticalAlign=middle;whiteSpace=wrap;rounded=0;fontColor=#FFFFFF;" vertex="1" parent="1">
          <mxGeometry x="506" y="1706" width="110" height="30" as="geometry" />
        </mxCell>
        <mxCell id="1wLEJl1Eoq0Ph8v_FXs2-154" value="" style="endArrow=none;html=1;rounded=0;strokeColor=#FFFFFF;entryX=0.997;entryY=0.216;entryDx=0;entryDy=0;entryPerimeter=0;strokeWidth=2;" edge="1" parent="1">
          <mxGeometry width="50" height="50" relative="1" as="geometry">
            <mxPoint x="492" y="1750" as="sourcePoint" />
            <mxPoint x="642" y="1750" as="targetPoint" />
          </mxGeometry>
        </mxCell>
        <mxCell id="1wLEJl1Eoq0Ph8v_FXs2-155" value="" style="endArrow=none;html=1;rounded=0;strokeColor=#FFFFFF;entryX=0.997;entryY=0.216;entryDx=0;entryDy=0;entryPerimeter=0;strokeWidth=2;" edge="1" parent="1">
          <mxGeometry width="50" height="50" relative="1" as="geometry">
            <mxPoint x="492" y="1529" as="sourcePoint" />
            <mxPoint x="642" y="1529" as="targetPoint" />
          </mxGeometry>
        </mxCell>
        <mxCell id="1wLEJl1Eoq0Ph8v_FXs2-156" value="insert_buku()" style="text;html=1;strokeColor=none;fillColor=none;align=left;verticalAlign=middle;whiteSpace=wrap;rounded=0;fontColor=#FFFFFF;" vertex="1" parent="1">
          <mxGeometry x="506" y="1756" width="126" height="30" as="geometry" />
        </mxCell>
        <mxCell id="1wLEJl1Eoq0Ph8v_FXs2-157" value="delete_buku()" style="text;html=1;strokeColor=none;fillColor=none;align=left;verticalAlign=middle;whiteSpace=wrap;rounded=0;fontColor=#FFFFFF;" vertex="1" parent="1">
          <mxGeometry x="506" y="1775" width="126" height="30" as="geometry" />
        </mxCell>
        <mxCell id="1wLEJl1Eoq0Ph8v_FXs2-162" value="" style="edgeStyle=orthogonalEdgeStyle;rounded=0;orthogonalLoop=1;jettySize=auto;html=1;strokeColor=#FFFFFF;endArrow=none;endFill=0;" edge="1" parent="1">
          <mxGeometry relative="1" as="geometry">
            <mxPoint x="281.66999999999996" y="1800" as="sourcePoint" />
            <mxPoint x="281.66999999999996" y="1886" as="targetPoint" />
            <Array as="points">
              <mxPoint x="281.66999999999996" y="1869" />
              <mxPoint x="281.66999999999996" y="1869" />
            </Array>
          </mxGeometry>
        </mxCell>
        <mxCell id="1wLEJl1Eoq0Ph8v_FXs2-163" style="edgeStyle=orthogonalEdgeStyle;rounded=0;orthogonalLoop=1;jettySize=auto;html=1;entryX=-0.001;entryY=0.461;entryDx=0;entryDy=0;entryPerimeter=0;strokeColor=#FFFFFF;endArrow=none;endFill=0;" edge="1" parent="1" source="1wLEJl1Eoq0Ph8v_FXs2-96" target="1wLEJl1Eoq0Ph8v_FXs2-139">
          <mxGeometry relative="1" as="geometry">
            <Array as="points">
              <mxPoint x="492" y="1643" />
            </Array>
          </mxGeometry>
        </mxCell>
      </root>
    </mxGraphModel>
  </diagram>
</mxfile>
